<?xml version="1.0" encoding="UTF-8" standalone="no"?>
<!-- Created with Inkscape (http://www.inkscape.org/) -->

<svg
   xmlns:dc="http://purl.org/dc/elements/1.1/"
   xmlns:cc="http://creativecommons.org/ns#"
   xmlns:rdf="http://www.w3.org/1999/02/22-rdf-syntax-ns#"
   xmlns:svg="http://www.w3.org/2000/svg"
   xmlns="http://www.w3.org/2000/svg"
   xmlns:sodipodi="http://sodipodi.sourceforge.net/DTD/sodipodi-0.dtd"
   xmlns:inkscape="http://www.inkscape.org/namespaces/inkscape"
   id="svg2"
   version="1.1"
   inkscape:version="0.48.3.1 r9886"
   width="48"
   height="48"
   sodipodi:docname="splat-as-vector-redrawn-with-highlights.svg">
  <metadata
     id="metadata8">
    <rdf:RDF>
      <cc:Work
         rdf:about="">
        <dc:format>image/svg+xml</dc:format>
        <dc:type
           rdf:resource="http://purl.org/dc/dcmitype/StillImage" />
        <dc:title></dc:title>
      </cc:Work>
    </rdf:RDF>
  </metadata>
  <defs
     id="defs6" />
  <sodipodi:namedview
     pagecolor="#ffffff"
     bordercolor="#666666"
     borderopacity="1"
     objecttolerance="10"
     gridtolerance="10"
     guidetolerance="10"
     inkscape:pageopacity="0"
     inkscape:pageshadow="2"
     inkscape:window-width="1301"
     inkscape:window-height="744"
     id="namedview4"
     showgrid="false"
     inkscape:zoom="6.9532167"
     inkscape:cx="21.780114"
     inkscape:cy="22.326024"
     inkscape:window-x="65"
     inkscape:window-y="24"
     inkscape:window-maximized="1"
     inkscape:current-layer="svg2" />
  <path
     style="color:#000000;fill:#ff5eff;fill-opacity:1;fill-rule:nonzero;stroke:none;stroke-width:0.10000000000000001;stroke-linecap:butt;stroke-linejoin:miter;stroke-miterlimit:4;stroke-opacity:1;stroke-dasharray:none;stroke-dashoffset:0;marker:none;visibility:visible;display:inline;overflow:visible;enable-background:accumulate"
     d="m 12.21222,24.364443 c -3.9550042,-3.246133 -9.9154889,1.250744 -9.9111267,4.507719 0.00436,3.256975 1.3661663,3.452752 3.8155477,2.753611 2.4493814,-0.699142 6.274534,-4.436967 6.095579,-7.26133 z"
     id="path3869"
     inkscape:connector-curvature="0"
     sodipodi:nodetypes="czzc" />
  <path
     style="color:#000000;fill:#0000ff;fill-opacity:1;fill-rule:nonzero;stroke:none;stroke-width:0.10000000000000001;stroke-linecap:butt;stroke-linejoin:miter;stroke-miterlimit:4;stroke-opacity:1;stroke-dasharray:none;stroke-dashoffset:0;marker:none;visibility:visible;display:inline;overflow:visible;enable-background:accumulate"
     d="m 21.50084,21.896973 c -5.773175,0.327644 -9.4201,5.608915 -9.635828,9.995374 -0.215728,4.38646 3.307822,5.393187 5.465097,5.321278 2.157274,-0.07191 4.876669,-0.676107 4.746005,-5.249369 -0.130665,-4.573262 -1.006729,-6.471825 -0.575274,-10.067283 z"
     id="path3831"
     inkscape:connector-curvature="0"
     sodipodi:nodetypes="czzzc" />
  <path
     style="opacity:1;color:#000000;fill:#ff8040;fill-opacity:1;fill-rule:nonzero;stroke:none;stroke-width:0.10000000000000001;stroke-linecap:butt;stroke-linejoin:miter;stroke-miterlimit:4;stroke-opacity:1;stroke-dasharray:none;stroke-dashoffset:0;marker:none;visibility:visible;display:inline;overflow:visible;enable-background:accumulate"
     d="m 27.613119,32.899075 c -0.07191,2.229184 1.582002,7.047098 3.811186,7.334735 2.229184,0.287637 3.706044,-0.876438 3.523548,-3.739276 -0.182496,-2.862838 -4.527682,-3.69008 -7.334734,-3.595459 z"
     id="path3850"
     inkscape:connector-curvature="0"
     sodipodi:nodetypes="czzc" />
  <path
     style="color:#000000;fill:#ff0000;fill-opacity:1;fill-rule:nonzero;stroke:none;stroke-width:0.10000000000000001;stroke-linecap:butt;stroke-linejoin:miter;stroke-miterlimit:4;stroke-opacity:1;stroke-dasharray:none;stroke-dashoffset:0;marker:none;visibility:visible;display:inline;overflow:visible;enable-background:accumulate"
     d="m 31.932203,18.762712 c 6.610169,-0.05085 12.019482,5.481272 9.61017,11.186441 -2.409312,5.705169 -5.854817,1.953598 -9.355932,-3.050848 -3.501116,-5.004445 -8.114533,-3.359546 -9.385718,-3.715478 0.254237,-2.745763 2.521311,-4.369268 9.13148,-4.420115 z"
     id="path3776"
     inkscape:connector-curvature="0"
     sodipodi:nodetypes="zzzcz" />
  <path
     style="opacity:1;color:#000000;fill:#c1c100;fill-opacity:1;fill-rule:nonzero;stroke:none;stroke-width:0.10000000000000001;stroke-linecap:butt;stroke-linejoin:miter;stroke-miterlimit:4;stroke-opacity:1;stroke-dasharray:none;stroke-dashoffset:0;marker:none;visibility:visible;display:inline;overflow:visible;enable-background:accumulate"
     d="m 29.66253,15.317285 c -0.719091,-2.876367 3.972293,-7.2248113 6.256097,-7.2628258 2.283805,-0.038014 3.235913,3.5954588 0.719092,5.3572328 -2.516821,1.761775 -6.975189,1.905593 -6.975189,1.905593 z"
     id="path3757"
     inkscape:connector-curvature="0"
     sodipodi:nodetypes="czzc" />
  <path
     style="fill:#000080;stroke:none;stroke-width:0.10000000000000001;stroke-linecap:butt;stroke-linejoin:miter;stroke-opacity:1;color:#000000;fill-opacity:1;fill-rule:nonzero;marker:none;visibility:visible;display:inline;overflow:visible;enable-background:accumulate;opacity:1"
     d="M 21.5 21.90625 C 18.269148 22.08961 15.701554 23.832614 14.03125 26.09375 C 15.395974 26.133755 16.607806 26.264684 17.46875 25.25 C 18.475478 24.063498 19.042 22.90625 19.4375 22.90625 C 19.833 22.90625 19.030567 25.160613 20.46875 25.84375 C 20.808861 26.005303 21.167173 26.117342 21.53125 26.15625 C 21.3805 24.815614 21.304289 23.537172 21.5 21.90625 z "
     id="path4509" />
  <path
     sodipodi:nodetypes="czzzc"
     inkscape:connector-curvature="0"
     id="path4165"
     d="m 18.768292,21.39361 c 0,0 -5.256496,1.103775 -9.1383798,0.3918 -3.8818836,-0.711975 -6.622004,-1.981758 -6.897364,-5.281624 -0.2753599,-3.299866 3.920861,-5.318973 7.2696078,-4.390961 3.348747,0.928012 4.451586,6.907782 8.766136,9.280785 z"
     style="color:#000000;fill:#800080;fill-opacity:1;fill-rule:nonzero;stroke:none;stroke-width:0.1;marker:none;visibility:visible;display:inline;overflow:visible;enable-background:accumulate" />
  <path
     style="opacity:1;fill:#00a800;fill-opacity:1;stroke:none;stroke-width:0.10000000000000001;stroke-linecap:butt;stroke-linejoin:miter;stroke-miterlimit:4;stroke-opacity:1;stroke-dasharray:none"
     d="m 21.605059,20.58811 c -2.113034,-3.188936 -3.83333,-6.424615 -3.65952,-11.4987528 0.157653,-4.6024433 3.579835,-7.0508474 6.756543,-6.9265335 2.891461,0.1131515 6.184923,5.1781249 0.09958,13.4588063 -3.336558,4.540248 -3.196601,4.96648 -3.196601,4.96648 z"
     id="path2987"
     inkscape:connector-curvature="0"
     sodipodi:nodetypes="csssc" />
  <path
     style="opacity:1;color:#000000;fill:#ff6a6a;fill-opacity:1;fill-rule:nonzero;stroke:none;stroke-width:0.10000000000000001;marker:none;visibility:visible;display:inline;overflow:visible;enable-background:accumulate"
     d="M 40.0625 22.125 C 40.482943 22.978049 40.632062 23.654673 40.65625 26 C 40.69205 29.471274 38.177093 29.848454 37.0625 29.8125 C 35.985501 29.77776 36.111566 28.92157 34.25 28.0625 C 33.922617 27.91142 33.379507 27.812544 32.78125 27.71875 C 36.074366 32.279315 39.258913 35.318318 41.53125 29.9375 C 42.748455 27.055201 41.983134 24.221369 40.0625 22.125 z "
     id="path4326" />
  <path
     style="color:#000000;fill:#6c006c;fill-opacity:1;fill-rule:nonzero;stroke:none;stroke-width:0.10000000000000001;marker:none;visibility:visible;display:inline;overflow:visible;enable-background:accumulate;opacity:1"
     d="M 8.0625 11.90625 C 7.2605058 11.93358 6.4709433 12.088141 5.75 12.375 C 8.9998175 13.107523 11.2698 14.352271 12.96875 16.5 C 14.874343 18.908957 15.880703 20.409272 17.03125 20.625 C 17.276794 20.671039 17.523369 20.705722 17.75 20.71875 C 14.255912 18.046251 13.067804 12.975156 10 12.125 C 9.37211 11.950998 8.7149159 11.884017 8.0625 11.90625 z "
     id="path3795" />
  <path
     style="opacity:1;color:#000000;fill:#ae00ae;fill-opacity:1;fill-rule:nonzero;stroke:none;stroke-width:0.10000000000000001;marker:none;visibility:visible;display:inline;overflow:visible;enable-background:accumulate"
     d="M 3.6875,13.78125 C 3.0274567,14.522298 2.6301539,15.438279 2.71875,16.5 c 0.27536,3.299866 3.0243664,4.569275 6.90625,5.28125 1.940942,0.355988 4.231891,0.249447 6.03125,0.0625 C 10.312592,19.937451 5.3810066,19.250282 3.6875,13.78125 z"
     id="path4186"
     inkscape:connector-curvature="0"
     sodipodi:nodetypes="csscc" />
  <path
     style="fill:#008000;stroke:none;stroke-width:0.10000000000000001;stroke-linecap:butt;stroke-linejoin:miter;stroke-opacity:1;color:#000000;fill-opacity:1;fill-rule:nonzero;marker:none;visibility:visible;display:inline;overflow:visible;enable-background:accumulate"
     d="M 24.09375 2.15625 C 21.099674 2.3396629 18.0853 4.7789594 17.9375 9.09375 C 17.885612 10.608535 18.035474 11.952734 18.28125 13.1875 C 18.780087 10.254459 20.412031 6.8489882 21.46875 5.75 C 22.739937 4.4279661 23.950742 3.7658898 25.78125 3.5625 C 26.170387 3.5192625 26.601798 3.5064147 27.03125 3.46875 C 26.365824 2.6582824 25.519115 2.1887936 24.6875 2.15625 C 24.488956 2.1484804 24.293355 2.1440225 24.09375 2.15625 z "
     id="path4238" />
  <path
     style="fill:#00ff00;stroke:none;stroke-width:0.10000000000000001;stroke-linecap:butt;stroke-linejoin:miter;stroke-opacity:1;color:#000000;fill-opacity:1;fill-rule:nonzero;marker:none;visibility:visible;display:inline;overflow:visible;enable-background:accumulate"
     d="M 27.5 4.125 C 27.354803 5.0700362 26.605951 9.8435437 25.6875 12.09375 C 24.670551 14.585275 22.270656 17.125 21.40625 17.125 C 20.757945 17.125 19.448358 15.762447 18.75 14.96875 C 19.424825 17.046717 20.43258 18.841343 21.59375 20.59375 C 21.59375 20.59375 21.475942 20.165248 24.8125 15.625 C 28.710923 10.320188 28.728209 6.3339094 27.5 4.125 z "
     id="path4257" />
  <path
     style="color:#000000;fill:#8c8c00;fill-opacity:1;fill-rule:nonzero;stroke:none;stroke-width:0.10000000000000001;marker:none;visibility:visible;display:inline;overflow:visible;enable-background:accumulate"
     d="M 35.90625 8.0625 C 34.629978 8.0837439 32.603103 9.4519124 31.1875 11.15625 C 33.060192 10.221361 34.937087 9.9117404 35.90625 9.96875 C 37.273705 10.109528 37.659665 10.517243 38.03125 11.3125 C 38.377377 9.6882593 37.45687 8.0366899 35.90625 8.0625 z "
     id="path4282" />
  <path
     style="color:#000000;fill:#ffff11;fill-opacity:1;fill-rule:nonzero;stroke:none;stroke-width:0.10000000000000001;marker:none;visibility:visible;display:inline;overflow:visible;enable-background:accumulate"
     d="M 37.84375 11.9375 C 36.216042 12.741481 32.578839 13.985542 29.625 14.28125 C 29.577039 14.640896 29.573831 14.982824 29.65625 15.3125 C 29.65625 15.3125 34.108179 15.168025 36.625 13.40625 C 37.209262 12.997267 37.606634 12.478869 37.84375 11.9375 z "
     id="path4301" />
  <path
     style="opacity:1;color:#000000;fill:#b00000;fill-opacity:1;fill-rule:nonzero;stroke:none;stroke-width:0.10000000000000001;marker:none;visibility:visible;display:inline;overflow:visible;enable-background:accumulate"
     d="M 27.3125 19.1875 C 24.209325 19.837234 22.994587 21.22096 22.8125 23.1875 C 23.719664 23.441506 26.307542 22.702641 29 24.0625 C 28.650512 23.194583 28.423037 22.811409 27.75 22.4375 C 26.779226 21.898181 25.153064 22.068864 24.9375 21.5625 C 24.721936 21.056136 26.124658 21.378706 26.84375 20.15625 C 27.037578 19.826742 27.201448 19.508333 27.3125 19.1875 z "
     id="path4379" />
  <path
     style="color:#000000;fill:#e17100;fill-opacity:1;fill-rule:nonzero;stroke:none;stroke-width:0.10000000000000001;marker:none;visibility:visible;display:inline;overflow:visible;enable-background:accumulate"
     d="M 27.625 32.90625 C 27.602307 33.609728 27.746358 34.567141 28.03125 35.5625 C 28.900707 34.015126 30.004345 33.478333 31.5625 33.375 C 30.25536 33.000129 28.813342 32.866193 27.625 32.90625 z "
     id="path4446" />
  <path
     style="opacity:0.50000000000000000;color:#000000;fill:#ff9b6a;fill-opacity:1;fill-rule:nonzero;stroke:none;stroke-width:0.10000000000000001;marker:none;visibility:visible;display:inline;overflow:visible;enable-background:accumulate"
     d="M 32.96875 33.90625 C 33.518157 34.849226 34.039898 35.089657 34 36.15625 C 33.95552 37.345312 32.24732 38.009411 31.3125 37.9375 C 30.549703 37.878823 29.374549 36.403658 28.21875 36.1875 C 28.885392 38.145479 30.059818 40.040984 31.4375 40.21875 C 33.666684 40.506387 35.119996 39.362838 34.9375 36.5 C 34.861935 35.314606 34.06698 34.472711 32.96875 33.90625 z "
     id="path4465" />
  <path
     style="opacity:1;color:#000000;fill:#0080ff;fill-opacity:1;fill-rule:nonzero;stroke:none;stroke-width:0.10000000000000001;marker:none;visibility:visible;display:inline;overflow:visible;enable-background:accumulate"
     d="M 12.65625 28.5625 C 12.200709 29.671055 11.928493 30.818564 11.875 31.90625 C 11.659272 36.29271 15.186475 37.290659 17.34375 37.21875 C 19.501024 37.14684 22.193164 36.542012 22.0625 31.96875 C 22.030194 30.838038 21.96741 29.869777 21.875 29 C 20.973564 31.362023 19.461969 35.96895 17.25 36.09375 C 14.793248 36.23236 12.963976 30.909509 12.65625 28.5625 z "
     id="path4528" />
  <path
     style="opacity:1;color:#000000;fill:#ff00ff;fill-opacity:1;fill-rule:nonzero;stroke:none;stroke-width:0.10000000000000001;marker:none;visibility:visible;display:inline;overflow:visible;enable-background:accumulate"
     d="M 9 23.25 C 7.1921534 23.27592 5.4061118 24.203214 4.125 25.4375 C 7.0975798 24.613871 11.142645 24.37328 11.34375 27.1875 C 11.918766 26.235865 12.27539 25.268929 12.21875 24.375 C 11.229999 23.563467 10.1149 23.234015 9 23.25 z "
     id="path4555" />
  <path
     style="opacity:0.50000000000000000;color:#000000;fill:#ffa8ff;fill-opacity:1;fill-rule:nonzero;stroke:none;stroke-width:0.10000000000000001;marker:none;visibility:visible;display:inline;overflow:visible;enable-background:accumulate"
     d="M 3.71875 25.84375 C 2.8584982 26.802915 2.3111886 27.895898 2.3125 28.875 C 2.31686 32.131975 3.6756186 32.324141 6.125 31.625 C 7.5005843 31.232359 9.2720179 29.859398 10.5625 28.25 C 10.162631 28.0793 9.6514357 27.925796 9.03125 27.9375 C 7.6434222 27.963691 7.4634534 30.09375 5.53125 30.09375 C 3.682897 30.09375 3.5907177 27.597449 3.71875 25.84375 z "
     id="path4574" />
</svg>
