<?xml version="1.0" encoding="UTF-8" standalone="no"?>
<!-- Created with Inkscape (http://www.inkscape.org/) -->

<svg
   xmlns:dc="http://purl.org/dc/elements/1.1/"
   xmlns:cc="http://creativecommons.org/ns#"
   xmlns:rdf="http://www.w3.org/1999/02/22-rdf-syntax-ns#"
   xmlns:svg="http://www.w3.org/2000/svg"
   xmlns="http://www.w3.org/2000/svg"
   xmlns:sodipodi="http://sodipodi.sourceforge.net/DTD/sodipodi-0.dtd"
   xmlns:inkscape="http://www.inkscape.org/namespaces/inkscape"
   id="svg2"
   version="1.1"
   inkscape:version="0.48.3.1 r9886"
   width="480"
   height="480"
   sodipodi:docname="splat-logo-vector-with-highlights.svg">
  <metadata
     id="metadata8">
    <rdf:RDF>
      <cc:Work
         rdf:about="">
        <dc:format>image/svg+xml</dc:format>
        <dc:type
           rdf:resource="http://purl.org/dc/dcmitype/StillImage" />
        <dc:title></dc:title>
      </cc:Work>
    </rdf:RDF>
  </metadata>
  <defs
     id="defs6" />
  <sodipodi:namedview
     pagecolor="#ffffff"
     bordercolor="#666666"
     borderopacity="1"
     objecttolerance="10"
     gridtolerance="10"
     guidetolerance="10"
     inkscape:pageopacity="0"
     inkscape:pageshadow="2"
     inkscape:window-width="1301"
     inkscape:window-height="744"
     id="namedview4"
     showgrid="false"
     inkscape:zoom="0.86915209"
     inkscape:cx="189.97596"
     inkscape:cy="187.47035"
     inkscape:window-x="65"
     inkscape:window-y="24"
     inkscape:window-maximized="1"
     inkscape:current-layer="svg2" />
  <path
     style="color:#000000;fill:#ff5eff;fill-opacity:1;fill-rule:nonzero;stroke:none;stroke-width:0.1;marker:none;visibility:visible;display:inline;overflow:visible;enable-background:accumulate"
     d="m 122.1222,243.64443 c -39.55004,-32.46133 -99.15489,12.50744 -99.11127,45.07719 0.0436,32.56975 13.66167,34.52752 38.15548,27.53611 24.49381,-6.99142 62.74534,-44.36967 60.95579,-72.6133 z"
     id="path3869"
     inkscape:connector-curvature="0"
     sodipodi:nodetypes="czzc" />
  <path
     style="color:#000000;fill:#0000ff;fill-opacity:1;fill-rule:nonzero;stroke:none;stroke-width:0.1;marker:none;visibility:visible;display:inline;overflow:visible;enable-background:accumulate"
     d="m 215.0084,218.96973 c -57.73175,3.27644 -94.201,56.08915 -96.35828,99.95374 -2.15728,43.8646 33.07822,53.93187 54.65097,53.21278 21.57274,-0.7191 48.76669,-6.76107 47.46005,-52.49369 -1.30665,-45.73262 -10.06729,-64.71825 -5.75274,-100.67283 z"
     id="path3831"
     inkscape:connector-curvature="0"
     sodipodi:nodetypes="czzzc" />
  <path
     style="color:#000000;fill:#ff8040;fill-opacity:1;fill-rule:nonzero;stroke:none;stroke-width:0.1;marker:none;visibility:visible;display:inline;overflow:visible;enable-background:accumulate"
     d="m 276.13119,328.99075 c -0.7191,22.29184 15.82002,70.47098 38.11186,73.34735 22.29184,2.87637 37.06044,-8.76438 35.23548,-37.39276 -1.82496,-28.62838 -45.27682,-36.9008 -73.34734,-35.95459 z"
     id="path3850"
     inkscape:connector-curvature="0"
     sodipodi:nodetypes="czzc" />
  <path
     style="color:#000000;fill:#ff0000;fill-opacity:1;fill-rule:nonzero;stroke:none;stroke-width:0.1;marker:none;visibility:visible;display:inline;overflow:visible;enable-background:accumulate"
     d="m 319.32203,187.62712 c 66.10169,-0.5085 120.19482,54.81272 96.1017,111.86441 -24.09312,57.05169 -58.54817,19.53598 -93.55932,-30.50848 -35.01116,-50.04445 -81.14533,-33.59546 -93.85718,-37.15478 2.54237,-27.45763 25.21311,-43.69268 91.3148,-44.20115 z"
     id="path3776"
     inkscape:connector-curvature="0"
     sodipodi:nodetypes="zzzcz" />
  <path
     style="color:#000000;fill:#c1c100;fill-opacity:1;fill-rule:nonzero;stroke:none;stroke-width:0.1;marker:none;visibility:visible;display:inline;overflow:visible;enable-background:accumulate"
     d="m 296.6253,153.17285 c -7.19091,-28.76367 39.72293,-72.24811 62.56097,-72.62826 22.83805,-0.38014 32.35913,35.95459 7.19092,53.57233 -25.16821,17.61775 -69.75189,19.05593 -69.75189,19.05593 z"
     id="path3757"
     inkscape:connector-curvature="0"
     sodipodi:nodetypes="czzc" />
  <path
     inkscape:connector-curvature="0"
     style="color:#000000;fill:#000080;fill-opacity:1;fill-rule:nonzero;stroke:none;stroke-width:0.1;marker:none;visibility:visible;display:inline;overflow:visible;enable-background:accumulate"
     d="m 215,219.0625 c -32.30852,1.8336 -57.98446,19.26364 -74.6875,41.875 13.64724,0.4001 25.76556,1.70934 34.375,-8.4375 10.06728,-11.86502 15.7325,-23.4375 19.6875,-23.4375 3.955,0 -4.06933,22.54363 10.3125,29.375 3.40111,1.61553 6.98423,2.73592 10.625,3.125 -1.5075,-13.40636 -2.26961,-26.19078 -0.3125,-42.5 z"
     id="path4509" />
  <path
     sodipodi:nodetypes="czzzc"
     inkscape:connector-curvature="0"
     id="path4165"
     d="m 187.68292,213.9361 c 0,0 -52.56496,11.03775 -91.3838,3.918 -38.81883,-7.11975 -66.22004,-19.81758 -68.97364,-52.81624 -2.7536,-32.99866 39.20861,-53.18973 72.69608,-43.90961 33.48747,9.28012 44.51586,69.07782 87.66136,92.80785 z"
     style="color:#000000;fill:#800080;fill-opacity:1;fill-rule:nonzero;stroke:none;stroke-width:0.1;marker:none;visibility:visible;display:inline;overflow:visible;enable-background:accumulate" />
  <path
     style="fill:#00a800;fill-opacity:1;stroke:none"
     d="m 216.05059,205.8811 c -21.13034,-31.88936 -38.3333,-64.24615 -36.5952,-114.98753 1.57653,-46.02443 35.79835,-70.50847 67.56543,-69.26533 28.91461,1.13151 61.84923,51.78125 0.9958,134.58806 -33.36558,45.40248 -31.96601,49.6648 -31.96601,49.6648 z"
     id="path2987"
     inkscape:connector-curvature="0"
     sodipodi:nodetypes="csssc" />
  <path
     inkscape:connector-curvature="0"
     style="color:#000000;fill:#ff6a6a;fill-opacity:1;fill-rule:nonzero;stroke:none;stroke-width:0.1;marker:none;visibility:visible;display:inline;overflow:visible;enable-background:accumulate"
     d="m 400.625,221.25 c 4.20443,8.53049 5.69562,15.29673 5.9375,38.75 0.358,34.71274 -24.79157,38.48454 -35.9375,38.125 -10.76999,-0.3474 -9.50934,-8.9093 -28.125,-17.5 -3.27383,-1.5108 -8.70493,-2.49956 -14.6875,-3.4375 32.93116,45.60565 64.77663,75.99568 87.5,22.1875 12.17205,-28.82299 4.51884,-57.16131 -14.6875,-78.125 z"
     id="path4326" />
  <path
     inkscape:connector-curvature="0"
     style="color:#000000;fill:#6c006c;fill-opacity:1;fill-rule:nonzero;stroke:none;stroke-width:0.1;marker:none;visibility:visible;display:inline;overflow:visible;enable-background:accumulate"
     d="m 80.625,119.0625 c -8.01994,0.2733 -15.91557,1.81891 -23.125,4.6875 32.49817,7.32523 55.198,19.77271 72.1875,41.25 19.05593,24.08957 29.11953,39.09272 40.625,41.25 2.45544,0.4604 4.92119,0.8072 7.1875,0.9375 C 142.55912,180.46251 130.67804,129.75156 100,121.25 93.7211,119.50998 87.14916,118.84017 80.625,119.0625 z"
     id="path3795" />
  <path
     style="color:#000000;fill:#ae00ae;fill-opacity:1;fill-rule:nonzero;stroke:none;stroke-width:0.1;marker:none;visibility:visible;display:inline;overflow:visible;enable-background:accumulate"
     d="m 36.875,137.8125 c -6.60043,7.41048 -10.57346,16.57029 -9.6875,27.1875 2.7536,32.99866 30.24366,45.69275 69.0625,52.8125 19.40942,3.55988 42.31891,2.49447 60.3125,0.625 C 103.12592,199.37451 53.81007,192.50282 36.875,137.8125 z"
     id="path4186"
     inkscape:connector-curvature="0"
     sodipodi:nodetypes="csscc" />
  <path
     inkscape:connector-curvature="0"
     style="color:#000000;fill:#008000;fill-opacity:1;fill-rule:nonzero;stroke:none;stroke-width:0.1;marker:none;visibility:visible;display:inline;overflow:visible;enable-background:accumulate"
     d="m 240.9375,21.5625 c -29.94076,1.83413 -60.0845,26.22709 -61.5625,69.375 -0.5189,15.14785 0.9797,28.58984 3.4375,40.9375 4.98837,-29.33041 21.30781,-63.38512 31.875,-74.375 12.71187,-13.22034 24.81992,-19.8411 43.125,-21.875 3.89137,-0.43238 8.20548,-0.56085 12.5,-0.9375 -6.65426,-8.10468 -15.12135,-12.79956 -23.4375,-13.125 -1.98544,-0.0777 -3.94145,-0.12227 -5.9375,0 z"
     id="path4238" />
  <path
     inkscape:connector-curvature="0"
     style="color:#000000;fill:#00ff00;fill-opacity:1;fill-rule:nonzero;stroke:none;stroke-width:0.1;marker:none;visibility:visible;display:inline;overflow:visible;enable-background:accumulate"
     d="m 275,41.25 c -1.45197,9.45036 -8.94049,57.18544 -18.125,79.6875 -10.16949,24.91525 -34.16844,50.3125 -42.8125,50.3125 -6.48305,0 -19.57892,-13.62553 -26.5625,-21.5625 6.74825,20.77967 16.8258,38.72593 28.4375,56.25 0,0 -1.17808,-4.28502 32.1875,-49.6875 38.98423,-53.04812 39.15709,-92.91091 26.875,-115 z"
     id="path4257" />
  <path
     inkscape:connector-curvature="0"
     style="color:#000000;fill:#8c8c00;fill-opacity:1;fill-rule:nonzero;stroke:none;stroke-width:0.1;marker:none;visibility:visible;display:inline;overflow:visible;enable-background:accumulate"
     d="m 359.0625,80.625 c -12.76272,0.21244 -33.03147,13.89412 -47.1875,30.9375 18.72692,-9.34889 37.49587,-12.4451 47.1875,-11.875 13.67455,1.40778 17.53415,5.48493 21.25,13.4375 3.46127,-16.24241 -5.7438,-32.7581 -21.25,-32.5 z"
     id="path4282" />
  <path
     inkscape:connector-curvature="0"
     style="color:#000000;fill:#ffff11;fill-opacity:1;fill-rule:nonzero;stroke:none;stroke-width:0.1;marker:none;visibility:visible;display:inline;overflow:visible;enable-background:accumulate"
     d="m 378.4375,119.375 c -16.27708,8.03981 -52.64911,20.48042 -82.1875,23.4375 -0.4796,3.59646 -0.5117,7.01574 0.3125,10.3125 0,0 44.51929,-1.44475 69.6875,-19.0625 5.84262,-4.08983 9.81634,-9.27381 12.1875,-14.6875 z"
     id="path4301" />
  <path
     inkscape:connector-curvature="0"
     style="color:#000000;fill:#b00000;fill-opacity:1;fill-rule:nonzero;stroke:none;stroke-width:0.1;marker:none;visibility:visible;display:inline;overflow:visible;enable-background:accumulate"
     d="m 273.125,191.875 c -31.03175,6.49734 -43.17913,20.3346 -45,40 9.07164,2.54006 34.95042,-4.84859 61.875,8.75 -3.49488,-8.67917 -5.76963,-12.51091 -12.5,-16.25 -9.70774,-5.39319 -25.96936,-3.68636 -28.125,-8.75 -2.15564,-5.06364 11.87158,-1.83794 19.0625,-14.0625 1.93828,-3.29508 3.57698,-6.47917 4.6875,-9.6875 z"
     id="path4379" />
  <path
     inkscape:connector-curvature="0"
     style="color:#000000;fill:#e17100;fill-opacity:1;fill-rule:nonzero;stroke:none;stroke-width:0.1;marker:none;visibility:visible;display:inline;overflow:visible;enable-background:accumulate"
     d="m 276.25,329.0625 c -0.2269,7.03478 1.21358,16.60891 4.0625,26.5625 8.69457,-15.47374 19.73095,-20.84167 35.3125,-21.875 -13.0714,-3.74871 -27.49158,-5.08807 -39.375,-4.6875 z"
     id="path4446" />
  <path
     inkscape:connector-curvature="0"
     style="opacity:0.5;color:#000000;fill:#ff9b6a;fill-opacity:1;fill-rule:nonzero;stroke:none;stroke-width:0.1;marker:none;visibility:visible;display:inline;overflow:visible;enable-background:accumulate"
     d="m 329.6875,339.0625 c 5.49407,9.42976 10.71148,11.83407 10.3125,22.5 -0.4448,11.89062 -17.5268,18.53161 -26.875,17.8125 -7.62797,-0.5868 -19.37951,-15.33842 -30.9375,-17.5 6.66642,19.57979 18.41068,38.53484 32.1875,40.3125 22.29184,2.87637 36.82496,-8.55912 35,-37.1875 -0.7556,-11.85394 -8.7052,-20.27289 -19.6875,-25.9375 z"
     id="path4465" />
  <path
     inkscape:connector-curvature="0"
     style="color:#000000;fill:#0080ff;fill-opacity:1;fill-rule:nonzero;stroke:none;stroke-width:0.1;marker:none;visibility:visible;display:inline;overflow:visible;enable-background:accumulate"
     d="m 126.5625,285.625 c -4.55541,11.08555 -7.27757,22.56064 -7.8125,33.4375 -2.15728,43.8646 33.11475,53.84409 54.6875,53.125 21.57274,-0.7191 48.49414,-6.76738 47.1875,-52.5 -0.32306,-11.30712 -0.9509,-20.98973 -1.875,-29.6875 -9.01436,23.62023 -24.13031,69.6895 -46.25,70.9375 -24.56752,1.3861 -42.86024,-51.84241 -45.9375,-75.3125 z"
     id="path4528" />
  <path
     inkscape:connector-curvature="0"
     style="color:#000000;fill:#ff00ff;fill-opacity:1;fill-rule:nonzero;stroke:none;stroke-width:0.1;marker:none;visibility:visible;display:inline;overflow:visible;enable-background:accumulate"
     d="m 90,232.5 c -18.07847,0.2592 -35.93888,9.53214 -48.75,21.875 29.7258,-8.23629 70.17645,-10.6422 72.1875,17.5 5.75016,-9.51635 9.3164,-19.18571 8.75,-28.125 C 112.29999,235.63467 101.149,232.34015 90,232.5 z"
     id="path4555" />
  <path
     inkscape:connector-curvature="0"
     style="opacity:0.5;color:#000000;fill:#ffa8ff;fill-opacity:1;fill-rule:nonzero;stroke:none;stroke-width:0.1;marker:none;visibility:visible;display:inline;overflow:visible;enable-background:accumulate"
     d="m 37.1875,258.4375 c -8.60252,9.59165 -14.07561,20.52148 -14.0625,30.3125 0.0436,32.56975 13.63119,34.49141 38.125,27.5 13.75584,-3.92641 31.47018,-17.65602 44.375,-33.75 -3.99869,-1.707 -9.11064,-3.24204 -15.3125,-3.125 -13.87828,0.2619 -15.67797,21.5625 -35,21.5625 -18.48353,0 -19.40532,-24.96301 -18.125,-42.5 z"
     id="path4574" />
</svg>
