<?xml version="1.0" encoding="utf-8"?>
<!-- Generator: Adobe Illustrator 13.0.2, SVG Export Plug-In . SVG Version: 6.00 Build 14948)  -->
<!DOCTYPE svg PUBLIC "-//W3C//DTD SVG 1.1//EN" "http://www.w3.org/Graphics/SVG/1.1/DTD/svg11.dtd">
<svg version="1.1" id="Layer_1" xmlns="http://www.w3.org/2000/svg" xmlns:xlink="http://www.w3.org/1999/xlink" x="0px" y="0px"
	 width="193px" height="193.232px" viewBox="0 0 193 193.232" enable-background="new 0 0 193 193.232" xml:space="preserve">
<g>
	<g>
		<path d="M22.3,46.387c-2.4,9.2-4.6,18.4-6.7,27.6c-2.2,9.5-2.8,19.2-1.9,29c0.2,1.3,0.3,2,0.4,2.2v1.3c-1.1-0.3-2.3-0.6-3.7-1.1
			c-1.4-0.4-3.8-0.5-7.2-0.5c-1,0-1.6,0.4-1.9,1.1c0,0.8,0,1.2,0,1.2c0,1.4,0.9,3.8,2.6,7.2c1.9,3.6,2.9,5.9,3.1,6.6l-4.2,0.1
			c-0.9,0-1.6,0.3-1.9,1c-0.1,0.2-0.5,0.3-0.9,0.2v1.4c4.4,7.8,8.6,13.3,12.2,16.6c-0.2,0-0.5,0-0.8,0.1c-2,0.3-4.5,0.8-7.6,1.4
			c-1,0-1.7,0.3-2.2,0.8c-0.4,0.4-0.5,0.7-0.5,1.1c0,1.1,2.3,3.7,7.2,7.8c5,4.1,7.7,6.2,8.1,6.6c-0.9,0.3-2.2,0.6-4.1,1.1
			c-0.6,0.2-1.1,0.5-1.5,0.8c0,0,0,0-0.1,0c-0.8,0.1-1.1,0.7-1.1,1.8c0,1.8,1.4,3.6,4.2,5.7c1.8,2.6,5.7,5,11.7,7.5
			c5.3,2.1,11.9,4.5,19.8,7.3c7.1,2.3,13.6,4.1,19.5,5.4c5.8,1.3,11.9,2.5,18,3.9c6.3,1.5,13.3,1.9,21,1.5c7.7-0.5,14.7-1.8,21-3.7
			c6.4-2,13.2-5.3,20.5-9.9c7.2-4.7,13.1-9.4,17.5-14.4c4.399-4.9,9.6-12.4,15.7-22.5c1.7-2.9,3.2-5.4,4.5-7.7
			c1-1.6,2.2-3.6,3.6-6.1c3.3-5.8,4.9-9.1,4.9-9.6c0-0.6-0.1-1.3-0.6-2.3c0-0.5-0.2-0.8-0.5-1c-0.9-0.8-2.9-0.6-6,0.6
			c-0.8,0.3-1.5,0.6-2.2,0.9c0.9-2.3,1.8-6,2.8-11.2c0.8-4.7,1.5-9.3,2.2-13.8c0-2.8-0.2-4.7-0.6-5.7c-1-2.3-2.8-1.7-5.8,1.8
			c-1.101,1.4-2.2,2.7-3.2,3.9c0-0.5,0.1-1,0.2-1.6c0.3-3.4,0.5-6.9,0.6-10.4c0-7.4-2.8-8-8.4-2c-1,1-2,2.3-3.1,3.6
			c-0.4-1-0.9-2.3-1.4-3.6c-0.8-1.7-1.5-3.2-2.3-4.9c-4-9.7-10.2-17.9-18.7-24.5l-0.3-1.4c-0.5-2-1-4-1.7-5.9
			c-3.4-11.2-9-21-16.7-29.6c-8.8-9.5-18.6-13.4-29.4-11.7l-0.7,0.2c-1.1,15.1-1.1,25.8,0,31.9c1.1,6.2,1.6,9.8,1.6,10.9
			c-0.4,0.7-1.3,1.2-2.6,1.5c-6.2,1.2-11.9,2.1-17.1,2.7l-18,3.2c-0.1-6.3-0.8-12.5-2.3-19c-1.5-6.4-3.5-14-6-22.7
			c-0.3-1-0.7-2-1.2-2.9c-1.5-0.3-3.2-0.2-4.8,0.2c-3.5,0.9-6.4,3-8.5,6.4C30.1,23.187,25.3,34.387,22.3,46.387z M105.2,7.087
			c11,4.5,19.6,12,25.8,22.6c3.9,6.7,6.6,13.7,8.2,21.4c0.1,0.9,0.1,1.4,0,1.9l3,2.9c0.6,0.6,1.3,1.5,2,2.4c1.2,1.5,2.4,2.8,3.6,4.2
			c4.3,4.9,7.9,10.3,10.7,16.1c0.7,1.7,1.3,3.3,1.8,4.7c0.2,0.4,0.5,0.9,0.6,1.3c0,0.2,0,0.4,0,0.6c0.6,2,0.9,3.8,0.9,5.2
			c0.2,0.4,0.2,0.8,0,1.3c0.5,1,1.6,1.5,3.2,1.5c0.9,0,1.9-0.5,3-1.4c0.9-0.4,1.8-1.1,2.5-2c1-1.8,1.5-2.7,1.7-2.9
			c0,1.8-0.2,5.6-0.6,11.1c-0.1,4.7,0.9,7,2.7,7c0.8,0,1.8-0.6,2.899-2c0.7-0.5,1.4-1.3,2.3-2.4c0.6-0.9,1.1-1.6,1.5-2.1
			c-0.5,3.1-1.4,7.7-2.6,14c-1.6,7.5-2.4,11.4-2.4,11.7c0,1.2,0.6,1.8,1.8,1.8c0.6,0,1.399-0.3,2.399-0.8c0.9-0.7,1.4-1,1.4-1
			l0.3,0.1c-1.4,2.7-3,5.7-5,9c-1.3,2.1-2.7,4.4-4.3,6.8c-2.3,3.6-5.9,9.2-11,16.9c-4.1,6.3-10.3,12-18.8,16.7s-16.5,8.3-24,10.4
			s-14.5,2.8-21.1,1.9c-6.6-0.8-12.3-1.6-17-2.2c-5.3-0.7-10.2-1.6-14.9-2.9c-5.4-1.5-11.8-3.5-19.1-6.1c-5.8-1.5-9.9-2.7-12.2-3.4
			c-4.6-1.3-8.1-2.6-10.7-3.8c-1.1-0.5-2.2-1-3.1-1.4c-0.1-0.2-0.2-0.5-0.2-0.8c0-0.1,0-0.2,0.1-0.3c-0.2-0.1-0.2-0.3-0.2-0.5
			c0-1.8,2.3-2.2,6.9-1.2c0.3-0.1,0.5-0.1,0.6-0.3c0.4-0.2,0.6-0.6,0.6-1.3c0-1.6-2.7-4.4-8.2-8.4c-2.7-2.1-5.9-4.3-9.4-6.8
			c2.7-0.3,4.6-0.4,5.9-0.6c2.4-0.3,3.6-1.3,3.6-2.8c0-0.9-0.6-2.1-1.7-3.8c-0.9-1.2-2-2.7-3.4-4.2c-1.8-2.1-3.1-3.8-4-5
			c-2.1-2.2-3.2-3.5-3.2-4c0-1.2,0.8-1.2,2.3,0c2.7,0.3,4-0.4,4-2c0-0.7-0.7-2.4-2.3-5.2c-0.8-1.4-1.7-2.9-2.5-4.5l-0.2-0.3
			c2.3,1.1,4.8,1.6,7.7,1.6c2.7,0,4.4-0.8,5-2.6c0-1.7,0-3.3-0.1-4.9s-0.4-5.3-0.9-11c-0.4-5.8,0.2-13.2,2.1-22.3
			c1.7-9.1,3.2-16.2,4.5-21.4c1.2-5.2,2.8-10.4,4.7-15.7c1.9-5.5,4.3-10.5,7-15.1c2.8-4.7,4.8-6.9,5.9-6.8l9.9,34.5
			c0.7,3,1.1,5.1,1,6.3c1.5,0.2,2.4,0.4,2.8,0.7c9.6-2.1,18.5-3.7,26.9-5.1c8.5-1.4,15-2.5,19.5-3.2c-2.4-12.8-3.7-26.1-3.7-39.7
			c1.4,0.5,2.4-0.4,3.1-2.5L105.2,7.087z M17.2,163.687c0,0.1,0.1,0.1,0.1,0.2c-0.1-0.1-0.1-0.1-0.2-0.2
			C17.2,163.687,17.2,163.687,17.2,163.687z"/>
		<path fill="#FFF200" d="M105.4,49.187c-4.5,0.7-11,1.8-19.5,3.2c-8.4,1.4-17.3,3-26.9,5.1c-0.4-0.3-1.3-0.5-2.8-0.7
			c0.1-1.2-0.3-3.3-1-6.3l-9.9-34.5c-1.1-0.1-3.1,2.1-5.9,6.8c-2.7,4.6-5.1,9.6-7,15.1c-1.9,5.3-3.5,10.5-4.7,15.7
			c-1.3,5.2-2.8,12.3-4.5,21.4c-1.9,9.1-2.5,16.5-2.1,22.3c0.5,5.7,0.8,9.4,0.9,11s0.1,3.2,0.1,4.9c-0.6,1.8-2.3,2.6-5,2.6
			c-2.9,0-5.4-0.5-7.7-1.6l0.2,0.3c0.8,1.6,1.7,3.1,2.5,4.5c1.6,2.8,2.3,4.5,2.3,5.2c0,1.6-1.3,2.3-4,2c-1.5-1.2-2.3-1.2-2.3,0
			c0,0.5,1.1,1.8,3.2,4c0.9,1.2,2.2,2.9,4,5c1.4,1.5,2.5,3,3.4,4.2c1.1,1.7,1.7,2.9,1.7,3.8c0,1.5-1.2,2.5-3.6,2.8
			c-1.3,0.2-3.2,0.3-5.9,0.6c3.5,2.5,6.7,4.7,9.4,6.8c5.5,4,8.2,6.8,8.2,8.4c0,0.7-0.2,1.1-0.6,1.3l-0.1,0.4
			c-0.1-0.1-0.4-0.1-0.5-0.1c-4.6-1-6.9-0.6-6.9,1.2c0,0.2,0,0.4,0.2,0.5c-0.1,0.1-0.1,0.2-0.1,0.3c0,0.3,0.1,0.6,0.2,0.8
			c0.9,0.4,2,0.9,3.1,1.4c2.6,1.2,6.1,2.5,10.7,3.8c2.3,0.7,6.4,1.9,12.2,3.4c7.3,2.6,13.7,4.6,19.1,6.1c4.7,1.3,9.6,2.2,14.9,2.9
			c4.7,0.6,10.4,1.4,17,2.2c6.6,0.9,13.6,0.2,21.1-1.9s15.5-5.7,24-10.4s14.7-10.4,18.8-16.7c5.1-7.7,8.7-13.3,11-16.9
			c1.6-2.4,3-4.7,4.3-6.8c2-3.3,3.6-6.3,5-9l-0.3-0.1c0,0-0.5,0.3-1.4,1c-1,0.5-1.8,0.8-2.399,0.8c-1.2,0-1.8-0.6-1.8-1.8
			c0-0.3,0.8-4.2,2.4-11.7c1.2-6.3,2.1-10.9,2.6-14c-0.4,0.5-0.9,1.2-1.5,2.1c-0.9,1.1-1.6,1.9-2.3,2.4c-1.1,1.4-2.1,2-2.899,2
			c-1.8,0-2.8-2.3-2.7-7c0.4-5.5,0.6-9.3,0.6-11.1c-0.2,0.2-0.7,1.1-1.7,2.9c-0.7,0.9-1.6,1.6-2.5,2c-1.1,0.9-2.1,1.4-3,1.4
			c-1.6,0-2.7-0.5-3.2-1.5c0.2-0.5,0.2-0.9,0-1.3c0-1.4-0.3-3.2-0.9-5.2c0-0.2,0-0.4,0-0.6c-0.1-0.4-0.4-0.9-0.6-1.3
			c-0.5-1.4-1.101-3-1.8-4.7c-2.8-5.8-6.4-11.2-10.7-16.1c-1.2-1.4-2.4-2.7-3.6-4.2c-0.7-0.9-1.4-1.8-2-2.4l-3-2.9
			c0.1-0.5,0.1-1,0-1.9c-1.6-7.7-4.3-14.7-8.2-21.4c-6.2-10.6-14.8-18.1-25.8-22.6l-0.4-0.1c-0.7,2.1-1.7,3-3.1,2.5
			C101.7,23.087,103,36.387,105.4,49.187z M114.6,84.487c-0.1-0.1-0.2-0.1-0.3-0.2l0.5-0.3L114.6,84.487z M67.5,88.387
			c0.1-0.1,0.2-0.1,0.3-0.1c0,0.1-0.1,0.1-0.2,0.2L67.5,88.387z"/>
	</g>
	<g>
		<path d="M123.5,108.687c-3.5-3.3-8-4.8-13.5-4.5c-6.6,0.2-11.4,2.2-14.6,6c-1.1,1.3-1.8,2.7-2.4,4c-0.8,1.5-1.2,3.2-1.1,5
			c0.1,1.5,0.5,3,1.2,4.4c0.2,0.5,0.5,1.1,0.7,1.7c1.4,2.7,3.2,4,5.5,3.9c1,0,2-0.5,3-1.2c0.3-0.1,0.5-0.2,0.8-0.3
			c0-0.1,0.1-0.1,0.1-0.2c0.3,1.7,0.6,2.7,0.9,3.2c0.1,0.1,0.1,0.3,0.1,0.4h0.1l0,0c0.2,0.3,0.5,0.6,0.9,0.9
			c0.6,0.4,1.5,0.7,2.5,0.7c0.4,0,0.9-0.1,1.3-0.2c0.8-0.3,1.6-0.4,2.3-0.5c0,0.2-0.1,0.3-0.1,0.6l-0.1-0.1
			c-0.1,0.2-0.2,0.5-0.3,0.7c-0.3,0.4-0.5,0.6-0.7,1c-2.3,2.1-4.9,4-7.7,5.7c-2.6,1.8-5.3,3.4-8.1,4.8c-3.1,1.5-6.3,2.5-9.6,2.9
			c-3,0.3-6,0.6-9.2,1c-1.7,0.1-3.4,0.2-5.1,0.3c-1.7,0.1-3.4,0.2-4.9,0.1c-1.7,0-3.3-0.2-4.7-0.4c-3.7-0.7-5.6-1.8-5.7-3.3
			c0.2-1.6,0.4-2.6,0.3-2.9c-0.1-1.8-1.3-2.5-3.6-1.8c-2.1,0.6-3.1,2-2.9,4c0,0.1,0,0.2,0,0.4c0,1,0.4,1.7,1.5,2.5
			c2.3,1.7,5.4,3.2,9.4,4.5c1.2,0.4,2.6,0.7,4.3,1c0.7,0.1,1.5,0.2,2.3,0.2c2.9,0.4,6,0.5,9,0.3c3.3-0.1,6.5-0.3,9.8-0.5
			c3.1-0.4,6.3-1.1,9.4-2.3c2.7-1,5.2-2.4,7.7-3.9c2.8-1.8,5.4-3.8,7.9-6c1.8-1.4,3.3-3,4.6-4.7l0,0c0.2-0.3,0.3-0.4,0.4-0.6
			c0.3,0.2,0.6,0.5,1,0.5c0.1,0.1,0.3,0.2,0.4,0.2c4.2,1.1,8.4,2,12.7,2.6c4.1,0.5,8.2,0.4,12.2-0.2c4.4-0.4,8.1-1.9,11-4.8
			c2.8-2.5,5.3-5.4,7.3-8.6c0.7-1,1.1-1.5,1.2-1.8c0.8-1.2,1.7-2.4,2.8-3.7c0.5-0.5,0.7-1.2,0.7-2c-0.1-1.8-1.5-2.7-4-2.6
			c-2.6,0.1-3.8,0.9-3.7,2.7c0,0.7,0.1,1.2,0.2,1.6c0.2,0.3,0.6,0.8,1.1,1.1c-0.7,0.9-1.3,1.6-1.8,2.2c-2.1,2.7-4.5,5.2-7.1,7.4
			c-2.9,2.3-6,3.6-9.7,4c-3.4,0.3-6.9,0.3-10.4,0.1c-3.9-0.1-7.4-1-10.9-2.6c-0.2-0.2-0.4-0.3-0.6-0.4c-0.1,0-0.1,0-0.1,0
			c0-0.1-0.1-0.2-0.2-0.4l-0.1-0.1c0,0,0-0.1-0.1-0.3c0.6-0.1,1-0.2,1.4-0.2c1.8-0.4,3.2-0.9,3.9-1.4c0.1-0.1,0.4-0.1,0.5-0.3
			c0.9-0.6,1.4-1.1,1.4-1.7c-0.1-0.4-0.4-1.5-1.1-3.3c-0.1-0.3-0.2-0.6-0.3-0.9c0.9,0.4,1.6,0.5,2.1,0.4c1.6,0,2.7-0.9,3.3-2.6
			c0.4-0.9,0.5-1.8,0.5-2.7c0-1.5-0.6-2.8-1.6-4.1C126.5,111.887,125.3,110.187,123.5,108.687z M117.5,120.387c0,0.3,0.2,1,0.5,2.1
			c0.2,0.4,0.3,0.7,0.4,1.1c-0.1,0.4-0.1,0.8-0.2,1.1c-0.4,0.2-1,0.4-1.8,0.7c-1.6,0.5-2.6,0.8-3,0.8c-1.6,0.2-2.9,0.5-3.9,0.8
			c-0.3-0.5-0.7-1.5-1.2-2.8c-0.6-2.2-1.9-3.2-3.7-3.1c-1.2,0.1-2.1,0.6-2.9,1.6c-0.8,1-1.5,1.5-2.3,1.6c-1.1,0.1-2.2-1.9-3.2-5.9
			c0-1.7,1.2-3.5,3.9-5.4c3.2-2.4,7.4-3.8,12.6-4c1.6,0,3.4,0.3,5.3,1.1c2,0.8,3.2,1.6,3.6,2.6c0.4,1.3,0.8,2.3,1.1,3
			c0.1,0.4,0.3,0.7,0.3,1s-0.2,0.5-0.4,0.7c-0.3,0-0.6,0-0.9,0c-2.5,0-3.9,0.6-3.9,1.8C117.5,119.487,117.5,119.987,117.5,120.387z"
			/>
		<path fill="#D7C945" d="M122.6,117.387c0.2-0.2,0.4-0.4,0.4-0.7s-0.2-0.6-0.3-1c-0.3-0.7-0.7-1.7-1.1-3c-0.4-1-1.6-1.8-3.6-2.6
			c-1.9-0.8-3.7-1.1-5.3-1.1c-5.2,0.2-9.4,1.6-12.6,4c-2.7,1.9-3.9,3.7-3.9,5.4c1,4,2.1,6,3.2,5.9c0.8-0.1,1.5-0.6,2.3-1.6
			c0.8-1,1.7-1.5,2.9-1.6c1.8-0.1,3.1,0.9,3.7,3.1c0.5,1.3,0.9,2.3,1.2,2.8c1-0.3,2.3-0.6,3.9-0.8c0.4,0,1.4-0.3,3-0.8
			c0.8-0.3,1.4-0.5,1.8-0.7c0.1-0.3,0.1-0.7,0.2-1.1c-0.1-0.4-0.2-0.7-0.4-1.1c-0.3-1.1-0.5-1.8-0.5-2.1c0-0.4,0-0.9,0.3-1.2
			c0-1.2,1.4-1.8,3.9-1.8C122,117.387,122.3,117.387,122.6,117.387z"/>
		<path d="M103.8,131.487v-0.1l0,0V131.487z"/>
		<path d="M117.5,151.987c3.3,0.2,5.8-0.2,7.6-1.3c1.7-1.2,2.6-2.4,2.6-3.4c-0.2-1.5-2.9-1.6-8.1-0.3c-5.4,1.2-7.9,2.3-7.9,3.2
			c0,0.3,0,0.5,0.1,0.5c0,0.2,0,0.4,0.1,0.5l0.3,0.1C112.3,151.387,114.1,151.687,117.5,151.987z"/>
		<g>
			<path d="M116.3,135.687l0.1-0.1l0.1-0.2c0-0.2-0.3-0.4-0.6-0.8c-0.4-0.4-0.7-0.6-1.1-0.6c0.1,0.2,0.4,0.4,0.7,0.9
				S116.2,135.687,116.3,135.687z"/>
		</g>
		<g>
			<path d="M116,135.487l0.3-0.1v-0.1c0-0.1-0.1-0.2-0.3-0.5c-0.3-0.2-0.5-0.4-0.5-0.4l-0.6,0.1c0,0.2,0.1,0.5,0.4,0.5
				C115.3,135.287,115.5,135.487,116,135.487z"/>
		</g>
	</g>
	<g>
		<path d="M138.1,107.687c0.1,0,0.1,0.2,0.1,0.3c0.3,0.1,1.1,0.4,2.5,1.1c1.4,0.6,15.5-4.2,42.4-14.4c2.9-1.5,6.2-3.4,9.9-5.8
			l-0.7-2.6c-14.101,3.5-32.101,10.3-54.1,20.4l-0.2-0.2c0,0.1,0,0.3,0,0.7C138,107.487,138,107.687,138.1,107.687z"/>
		<path d="M147.8,115.287c0.6-0.1,1-0.3,1.2-0.8c0.2-0.2,0.2-0.4,0.2-0.6c0-0.9-0.5-1.3-1.5-1.2c-0.9,0.2-1.4,0.7-1.3,1.5
			c0,0.2,0.1,0.4,0.3,0.7C147,115.187,147.3,115.387,147.8,115.287z"/>
		<path d="M135.6,112.387c-0.4,0.1-0.7,0.5-0.9,0.9c-0.2,0.4-0.2,0.7-0.2,0.9v0.5c0.1,0.1,0.2,0.2,0.2,0.3c0,0.1,0.3,0.2,0.8,0.1
			c1-0.1,1.5-0.5,1.5-1.4c0-0.3-0.3-0.5-0.8-0.7C135.8,112.687,135.7,112.487,135.6,112.387z"/>
		<path d="M149.2,96.987c10-7.4,16.4-12,19-13.8c8.3-5.3,14.8-9.2,19.8-11.5c0.8-0.8,1.1-1.6,1.1-2.3c-6.6-0.2-15.6,3.8-27.3,12
			c-13,9-23.3,16.8-30.9,23.3c0.6,1.2,0.9,1.9,0.9,2.2c0.2,0.1,0.4,0.3,0.7,0.2C134.4,106.987,140,103.687,149.2,96.987z"/>
		<path d="M126.5,103.687c0,0.1,0.4,0.2,1,0.1c0.2,0,0.5-0.1,1-0.2c0.2,0.1,0.3-0.2,0.2-0.8c0-0.8-0.5-1.1-1.2-1.2
			c-0.8,0-1.3,0.4-1.5,1.3C126.2,103.387,126.3,103.687,126.5,103.687z"/>
		<path d="M86.9,113.187c0-0.9-0.4-1.2-1.1-1c-0.8,0.3-1.2,0.8-1.1,1.7c0,0.1,0,0.5,0.1,0.8l0.1,0.2c0.2,0.1,0.4,0.1,0.8,0.1
			c0.4,0,0.7-0.3,1-1C86.8,113.287,86.9,112.987,86.9,113.187z"/>
		<path d="M81.6,119.187c0,0,0.1-0.2,0.2-0.5c0.3-0.7-6.6-2.5-20.6-5.4s-26.5-5.1-37.5-6.4c-11.1-1.4-17.9-2.1-20.5-2.2
			c-1.3,0-2.4,0-3.2,0v2.2c5.6,2.1,11.5,3.8,17.9,5c21.5,3.8,38.3,6.2,50.4,7.1c3.8,0.2,7,0.4,9.7,0.4c1.9-0.1,3.1-0.2,3.4-0.2
			C81.4,119.187,81.5,119.187,81.6,119.187z"/>
		<path d="M11.8,126.387c11,0.6,21.4,0.8,31.4,0.4s19.2-0.6,27.6-0.8c6-1,9.4-1.6,10.4-1.6c0-0.2-0.2-0.5-0.4-1
			c-0.6-0.4-1.8-0.6-3.7-0.6c-0.5,0-4-0.1-10.5-0.4c-6.4-0.4-11.4-0.6-15.2-0.7c-3.7-0.1-14.2-0.3-31.5-0.6
			c-9.2-0.1-15.9-0.1-19.9,0.1v2.3C2.7,125.087,6.6,125.987,11.8,126.387z"/>
		<path d="M70.4,133.287c0.4,0.5,0.8,0.8,1.4,0.9c0.3-0.1,0.5-0.2,0.5-0.4c0.2-0.1,0.3-0.4,0.3-0.8c-0.3-0.8-0.4-1.3-0.4-1.8
			c-0.7-0.2-1.3-0.1-1.6,0.2c-0.4,0.3-0.5,0.6-0.5,0.9C70.1,132.687,70.2,133.087,70.4,133.287z"/>
		<path d="M86.9,126.987c0.1,0.9,0.8,1.4,2,1.5c0.4,0,0.7-0.3,0.8-0.9c0.1-0.6,0.1-0.9,0.1-1c0-0.9-0.6-1.2-1.5-1.1
			C87.3,125.687,86.9,126.187,86.9,126.987z"/>
	</g>
	<g>
		<path d="M185.6,111.587c2.5-0.4,4.8-1.1,6.9-2.1v-2.1c-10.5-1-29.4,0.3-56.5,4l-0.2-0.2c0,0.1,0,0.2-0.1,0.6c0,0.2,0,0.2,0,0.4
			c0.1,0,0.5,0.4,1,1.2C137.8,114.887,154,114.187,185.6,111.587z"/>
		<path d="M17.8,140.587c12-1.9,23.2-3.5,33.4-5c10.1-1.5,18.9-3,26-4.5c0.2-0.8,0.3-1.1,0.4-1.1c0.1-0.1,0.1-0.3-0.1-0.6
			c-0.2-0.4-0.4-0.6-1-0.9c-0.6-0.2-2.7-0.2-6.3,0c-3.6,0.2-7.6,0.5-11.9,0.9c-4.2,0.6-16.1,2.4-35.6,5.6
			c-11.4,1.8-18.6,3.4-21.8,4.8v1.4C3.9,142.087,9.5,141.787,17.8,140.587z"/>
	</g>
	<g>
		<path d="M105.8,76.487c-0.1,1.9,0.3,3.9,1.1,5.8c1,1.9,2,3.6,3.1,4.9c1.2,1.4,2.5,2.6,4.3,3.6c1.7,1,3.6,1.7,5.5,2.2
			c2,0.4,3.9,0.7,5.9,0.9c2,0.1,3.8,0,5.5-0.5c1.6-0.4,3.3-1,4.8-1.9c1.7-0.8,3.1-1.8,4.4-3c1.4-1.1,2.3-2.7,2.9-5
			c0.7-2.2,1.2-4.2,1.4-6.1c0.3-1.8,0.1-3.6-0.5-5.3c-0.5-1.7-1.3-3.4-2.2-5.2c-1-1.8-2.2-3.3-3.8-4.5c-1.5-1.3-3.2-2.3-5-3.1
			c-1.9-0.9-3.7-1.3-5.7-1.3s-3.8,0.1-5.7,0.4c-1.7,0.1-3.3,0.6-4.6,1.2c-1.2,0.7-2.7,1.5-4.2,2.4c-1.5,1-3,2.2-4.2,3.7
			c-1.3,1.4-2,3-2.3,5C106.2,72.587,106,74.487,105.8,76.487z M138.5,69.387c-1.3-0.2-2.6-0.4-3.7-0.4c-1.8-0.1-3.7-0.3-5.6-0.3
			c-1.8,0-3.5,0.1-5.2,0.5c-1.7,0.3-3.2,0.6-4.8,0.8c-1.7,0.3-3.2,0.8-4.5,1.5c-1.5,0.8-2.8,1.5-4,2.1c0.1-0.7,0.3-1.4,0.6-1.9
			c0.7-1.7,1.6-3,2.9-4.2c0.8-0.6,1.8-1.5,3.1-2.4c1.4-0.9,2.9-1.6,4.8-2.1c1.9-0.4,3.9-0.6,5.9-0.3c1.2,0.2,2.5,0.6,4,1.1
			c1.4,0.6,2.6,1.4,3.7,2.6C136.7,67.587,137.7,68.587,138.5,69.387z M139,73.987c0.5,0.2,0.9,0.2,1.3,0.4c0,1.1-0.1,2.3-0.2,3.4
			c-0.3,1.6-0.6,3.2-1.3,4.7c-0.8,2.2-2.1,3.8-4.2,4.9c-1.9,1-3.9,1.6-6.1,1.8c-1.3,0.2-2.6,0.2-3.9,0c-1.8,0.1-3.6-0.2-5.3-1
			c-1.8-0.8-3.3-1.8-4.8-3.1c-1.6-1.7-2.8-3.6-3.5-5.7c-0.1-0.2-0.2-0.5-0.2-0.8l8-3.7l9-1.6c1.7-0.2,3.5-0.3,5.4-0.2
			C135.2,73.187,137.1,73.487,139,73.987z"/>
		<path fill="#D7C945" d="M128,62.687c-2-0.3-4-0.1-5.9,0.3c-1.9,0.5-3.4,1.2-4.8,2.1c-1.3,0.9-2.3,1.8-3.1,2.4
			c-1.3,1.2-2.2,2.5-2.9,4.2c-0.3,0.5-0.5,1.2-0.6,1.9c1.2-0.6,2.5-1.3,4-2.1c1.3-0.7,2.8-1.2,4.5-1.5c1.6-0.2,3.1-0.5,4.8-0.8
			c1.7-0.4,3.4-0.5,5.2-0.5c1.9,0,3.8,0.2,5.6,0.3c1.1,0,2.4,0.2,3.7,0.4c-0.8-0.8-1.8-1.8-2.8-3c-1.1-1.2-2.3-2-3.7-2.6
			C130.5,63.287,129.2,62.887,128,62.687z"/>
		<path fill="#FFFFFF" d="M118.8,74.887l-8,3.7c0,0.3,0.1,0.6,0.2,0.8c0.7,2.1,1.9,4,3.5,5.7c1.5,1.3,3,2.3,4.8,3.1
			c1.7,0.8,3.5,1.1,5.3,1c1.3,0.2,2.6,0.2,3.9,0c2.2-0.2,4.2-0.8,6.1-1.8c2.1-1.1,3.4-2.7,4.2-4.9c0.7-1.5,1-3.1,1.3-4.7
			c0.1-1.1,0.2-2.3,0.2-3.4c-0.4-0.2-0.8-0.2-1.3-0.4c-1.9-0.5-3.8-0.8-5.8-0.9c-1.9-0.1-3.7,0-5.4,0.2L118.8,74.887z"/>
		<path d="M67.3,70.187c-2.1-0.2-4.1-0.1-6.2,0.2c-2,0.3-4.1,0.9-6.2,1.8c-2,1-3.7,2-5.1,3.1c-1.4,1.1-2.6,2.3-3.6,3.6
			c-0.9,1.2-1.7,2.5-2.3,4.1c-0.5,1.5-1,3.5-1.2,6c-0.4,2.4,0.1,4.7,1.1,6.7c1.1,2,2.1,3.8,3,5.3c1,1.5,2.8,2.9,5.4,4
			c2.7,1.2,5.1,1.9,7.1,2c2.1,0,4.7-0.3,7.8-0.9c3-0.7,5.7-1.9,8.3-3.6c2.5-1.6,4.6-4,6-7c1.5-3,2.2-6.2,2.2-9.6
			c-0.2-3.1-0.9-5.9-2.4-8.2c-1.4-2.5-3.3-4.3-5.6-5.6C73.3,70.787,70.6,70.187,67.3,70.187z M78.8,85.087c0.4,1.9,0.2,3.8-0.6,5.6
			c-0.7,1.9-1.8,3.7-3.3,5.5c-1.3,1.7-2.9,3-4.7,4c-1.1,0.5-2.4,1-3.5,1.3c-1.3,0.4-2.5,0.7-3.8,0.9c-1.9,0.2-3.7,0-5.5-0.5
			c-1.5-0.5-2.7-1.1-3.9-1.9c-0.7-0.6-1.3-1.3-1.9-2c-2-2.1-3.4-4.6-4.2-7.5c1.8-1.1,3.4-2.1,5.1-3c1.3-0.6,2.5-1.3,3.7-1.7
			c1.4-0.6,2.6-1,4-1.3c2.6-0.6,4.7-1.1,6.2-1.1c3.1-0.1,5.4-0.1,6.8,0c1.5,0,2.7,0.2,3.8,0.5c1.1,0.2,1.6,0.3,1.6,0.4s0,0.1,0,0.1
			C78.7,84.587,78.7,84.887,78.8,85.087z M62,75.687c1.2-0.2,2.5-0.3,3.8-0.3c1.3-0.2,3,0,5.3,0.3c2.2,0.2,4.4,1.7,6.3,4.3
			c-1.2-0.4-2.5-0.7-3.8-0.8c-2.8-0.2-5.6-0.2-8.4,0c-2.5,0.1-5,0.5-7.5,1.2c-3.3,0.9-6.3,2.3-9,4.1c0.7-1,1.6-1.9,2.5-2.8
			c1-1,2.1-2,3.3-2.9C56.8,76.987,59.2,75.987,62,75.687z"/>
		<path fill="#FFFFFF" d="M77,83.887c-1.1-0.3-2.3-0.5-3.8-0.5c-1.4-0.1-3.7-0.1-6.8,0c-1.5,0-3.6,0.5-6.2,1.1
			c-1.4,0.3-2.6,0.7-4,1.3c-1.2,0.4-2.4,1.1-3.7,1.7c-1.7,0.9-3.3,1.9-5.1,3c0.8,2.9,2.2,5.4,4.2,7.5c0.6,0.7,1.2,1.4,1.9,2
			c1.2,0.8,2.4,1.4,3.9,1.9c1.8,0.5,3.6,0.7,5.5,0.5c1.3-0.2,2.5-0.5,3.8-0.9c1.1-0.3,2.4-0.8,3.5-1.3c1.8-1,3.4-2.3,4.7-4
			c1.5-1.8,2.6-3.6,3.3-5.5c0.8-1.8,1-3.7,0.6-5.6c-0.1-0.2-0.1-0.5-0.2-0.7c0,0,0,0,0-0.1S78.1,84.087,77,83.887z"/>
		<path fill="#D7C945" d="M48.7,84.487c2.7-1.8,5.7-3.2,9-4.1c2.5-0.7,5-1.1,7.5-1.2c2.8-0.2,5.6-0.2,8.4,0c1.3,0.1,2.6,0.4,3.8,0.8
			c-1.9-2.6-4.1-4.1-6.3-4.3c-2.3-0.3-4-0.5-5.3-0.3c-1.3,0-2.6,0.1-3.8,0.3c-2.8,0.3-5.2,1.3-7.5,3.1c-1.2,0.9-2.3,1.9-3.3,2.9
			C50.3,82.587,49.4,83.487,48.7,84.487z"/>
		<g>
			<path d="M117.2,77.187c0,1.6,0.5,3,1.5,4.2c1.4,1.7,3.2,2.5,5.5,2.3c3.1-0.1,5.2-1.4,6.3-3.8c0.7-1.2,0.9-2.5,0.8-3.7v-0.1
				c0-0.2-0.1-0.4-0.1-0.5s0-0.2-0.1-0.3l-0.1-0.1l0.2,0.2c0.1,0.2,0-0.2-0.2-1.1s-1.2-2.2-2.8-3.6c-1.6-1.5-3.9-1.8-6.9-0.9
				S117,73.187,117.2,77.187L117.2,77.187z M127.6,79.087c-1.1-1.1-1.6-2.6-1.5-4.2c1.1-0.2,2.2-0.3,3.1-0.2c-0.6,0.2-1,0.7-1.2,1.7
				C127.8,78.187,127.7,78.987,127.6,79.087z"/>
		</g>
		<g>
			<path d="M56.3,91.587c0.2,0.6,0.4,1,0.8,1.3c1.3,1.5,3.1,2.2,5.5,2.1c2.9-0.2,4.8-1.4,5.7-3.6c0.4-2.2,0.5-3.3,0.5-3.4
				c0-1-0.1-1.8-0.2-2.1c-0.2-0.4-0.8-1.1-1.8-2.2c-1.1-1.2-3.1-1.7-6.1-1.4c-2.9,0.2-4.5,2.1-4.9,5.7c0.1,0.2,0.1,0.4,0.1,0.7
				C56.1,89.987,56.2,90.987,56.3,91.587z M63.9,85.987c-0.1,0.4-0.2,0.7-0.2,1.2c-0.2,1.5-0.5,2.3-0.9,2.4c-0.2,0-0.6,0-0.8,0.1
				c0.1-0.2,0.1-0.4,0.1-0.5c-0.1-0.5-0.2-0.8-0.3-1.2c0.4-0.4,0.6-1,0.6-1.7C62.9,86.187,63.4,85.987,63.9,85.987z"/>
		</g>
	</g>
	<g>
		<g>
			<path d="M110.8,27.087c1.5,3.7,3.2,7.9,5,12.7c1.7,4.7,2.9,6.8,3.6,6.2c0.8-0.5,1.6-1.2,2.6-2.1c1.1-1,1.5-2.3,1.3-4
				c-0.1-1.7-1.6-5.6-4.4-11.8c-2.8-6.1-4.7-10.2-5.7-12.5c-1-2-1.9-3.6-2.9-5.1c-0.4-0.5-1-1.3-2.1-2.5c-0.9-1.1-1.5-2-2-2.6
				c-1-1.1-2.5-1.5-4.4-1.2c-1.9,0.3-2.7,0.9-2.7,1.8c0,0.1,0.1,0.4,0.5,0.6c0.3,0.4,0.2,0.4-0.1,0.4c-0.3-0.2,0.2,0.3,1.5,1.3
				C105.9,17.187,109.2,23.487,110.8,27.087z"/>
		</g>
		<g>
			<path d="M53.8,31.887c-0.7-0.8-1.7-3-3.1-6.8c-1.4-3.7-1.4-2.1,0,5.1c1.3,7.2,1.7,13.4,1.2,18.9c-0.4,5.5,0.9,8.5,4.2,8.9
				c3.2,0.5,4.5-1.7,3.7-6.6C59.1,46.487,57.1,39.987,53.8,31.887z"/>
		</g>
	</g>
</g>
</svg>
